<?xml version="1.0" encoding="UTF-8"?>
<svg id="Camada_2" data-name="Camada 2" xmlns="http://www.w3.org/2000/svg" viewBox="0 0 807.19 152.86">
  <defs>
    <style>
      .cls-1 {
        fill: #fff;
      }
    </style>
  </defs>
  <g id="Camada_1-2" data-name="Camada 1">
    <g>
      <path class="cls-1" d="m739.13,29.85c-14.15.49-27.88,2.65-40.99,6.31-4.98,1.39-9.87,2.99-14.66,4.8V10.17c15.66-4.97,32.16-8.11,49.21-9.14,4.14-.25,8.33-.38,12.54-.38s8.38.13,12.53.38c14.79.89,29.16,3.37,42.93,7.25,2.19.62,4.35,1.27,6.51,1.96v31.36l-7.04,6.23-11.75,10.42-66.2,58.7-4.81,4.26c7.21,1.16,14.58,1.88,22.07,2.11,1.91.06,3.83.1,5.76.1s3.85-.03,5.76-.1c13.98-.45,27.55-2.54,40.51-6.1,5.34-1.45,10.57-3.17,15.69-5.1v30.8c-18.21,5.81-37.54,9.12-57.58,9.55h-8.77c-17.41-.37-34.28-2.92-50.36-7.39-2.35-.65-4.68-1.34-6.99-2.08v-30.81l7.36-6.52,11.67-10.34,66.77-59.19,4.57-4.05c-7.36-1.21-14.88-1.97-22.53-2.23-4-.11-7.09-.25-12.19,0Z"/>
      <path class="cls-1" d="m653.09,29.56c-1.3-1.66-2.66-3.26-4.1-4.79-2.8-3.02-5.86-5.82-9.12-8.35-12.9-10.03-29.12-16-46.74-16-4.94,0-9.77.47-14.44,1.37-9.82,1.88-18.96,5.64-27.05,10.89-7.04,4.58-13.29,10.29-18.47,16.88-.48.6-.94,1.21-1.4,1.84-3.18,4.29-5.91,8.94-8.13,13.85-4.28,9.46-6.69,19.94-6.73,30.99,0,.14,0,.27,0,.41,0,11.01,2.33,21.47,6.53,30.92,2.19,4.94,4.9,9.6,8.05,13.92,5.48,7.53,12.31,14.01,20.12,19.1,8.08,5.26,17.23,9.03,27.05,10.91,2.14.42,4.33.75,6.54.97,2.61.27,5.25.41,7.93.41s5.32-.14,7.93-.41c14.54-1.5,27.87-7.09,38.81-15.6v15.6h29.25v-81.96c-.58-7.34-2.21-14.38-4.73-20.98-2.75-7.25-6.59-13.97-11.3-19.96Zm-29.57,82.64c-8.17,6.99-18.79,11.21-30.38,11.21-.91,0-1.81-.02-2.71-.08-10.32-.58-19.74-4.53-27.2-10.73-10.3-8.58-16.87-21.5-16.87-35.96,0-.14,0-.27,0-.41.11-14.31,6.67-27.09,16.9-35.58,7.47-6.21,16.9-10.13,27.22-10.71.88-.05,1.76-.07,2.65-.07,11.56,0,22.15,4.2,30.31,11.15,7.48,6.37,12.93,15.05,15.24,24.95.67,2.9,1.08,5.9,1.19,8.98.02.56.03,1.12.03,1.69s0,1.13-.03,1.69c-.11,3.05-.5,6.01-1.16,8.88-2.29,9.9-7.73,18.6-15.19,24.99Z"/>
      <path class="cls-1" d="m524.19,22.48c-11.18-11.24-25.83-19.01-42.22-21.56-1.63-.26-3.29-.46-4.96-.61-2.26-.2-4.56-.31-6.87-.31s-4.61.11-6.87.31c-9.26.83-18.04,3.31-26.05,7.15-10.76,5.16-20.11,12.76-27.35,22.1-.65.84-1.28,1.69-1.9,2.55v120.35h29.25v-54.16h44.76v-29.25h-44.76v-26.03c7.79-7.72,18.29-12.73,29.93-13.46.99-.06,1.99-.1,3-.1s2.01.03,3.01.1c3.03.19,5.99.67,8.83,1.41,8.23,2.15,15.58,6.48,21.39,12.34l10.64-10.64,3.11-3.11,7.08-7.08Z"/>
      <path class="cls-1" d="m396.22,57.51c-.7-2.78-1.56-5.5-2.56-8.15-2.7-7.18-6.46-13.85-11.08-19.81-12.62-16.28-31.7-27.31-53.4-29.25-2.26-.2-4.56-.31-6.87-.31s-4.61.11-6.87.31c-21.7,1.93-40.77,12.97-53.4,29.25-.42.54-.84,1.1-1.24,1.66-3.17,4.31-5.89,8.97-8.09,13.9-3.4,7.58-5.59,15.81-6.33,24.45-.19,2.19-.29,4.42-.29,6.66,0,7.76,1.16,15.25,3.31,22.3.93,3.02,2.03,5.96,3.31,8.81,2.2,4.93,4.92,9.59,8.09,13.9,13.87,18.93,36.26,31.21,61.52,31.21,11.63,0,22.65-2.61,32.51-7.26l-4.54-13.82-4.77-14.53c-6.84,3.92-14.76,6.16-23.2,6.16-17.8,0-33.28-9.94-41.18-24.58-3.57-6.6-5.59-14.16-5.59-22.19,0-2.3.16-4.56.49-6.77,3.14-21.65,21.11-38.51,43.29-39.91.99-.06,1.99-.1,3-.1s2.01.03,3.01.1c22.06,1.4,39.96,18.1,43.23,39.6l-48.74.16,9.37,28.94,34.46-.11,16.52-.06,13.51-.04h1.71c.31-1.02.59-2.06.85-3.1,1.51-5.99,2.32-12.26,2.32-18.72,0-2.42-.11-4.82-.33-7.18-.37-3.94-1.04-7.8-1.98-11.54Z"/>
      <path class="cls-1" d="m253.32,22.48C241.03,10.11,224.53,1.95,206.14.31c-2.26-.2-4.56-.31-6.87-.31s-4.61.11-6.87.31c-9.26.83-18.04,3.31-26.05,7.15-10.76,5.16-20.11,12.76-27.35,22.1-.43.54-.84,1.1-1.25,1.67-.22.29-.44.58-.65.89v120.35h29.25V43.02c7.79-7.72,18.28-12.73,29.93-13.46.99-.06,1.99-.1,3-.1s2.01.03,3.01.1c11.8.75,22.4,5.87,30.21,13.75l10.64-10.64,3.11-3.11,7.08-7.08Z"/>
      <path class="cls-1" d="m109.53,109.07c-8.48,8.6-20.27,13.93-33.3,13.93s-24.47-5.18-32.92-13.55c-8.55-8.47-13.85-20.23-13.85-33.22s5.33-24.82,13.93-33.3c7.77-7.67,18.23-12.64,29.84-13.37.99-.06,1.99-.1,3-.1s2.01.03,3.01.1c11.8.75,22.4,5.87,30.21,13.75l10.64-10.64,3.11-3.11,7.08-7.08C117.99,10.11,101.48,1.95,83.1.31c-2.26-.2-4.56-.31-6.87-.31s-4.61.11-6.87.31c-18.19,1.62-34.54,9.64-46.79,21.79-2.36,2.33-4.57,4.83-6.6,7.46C5.96,42.45,0,58.65,0,76.23c0,21.13,8.6,40.25,22.48,54.05,13.78,13.71,32.78,22.18,53.75,22.18s40.31-8.63,54.13-22.56l-10.19-10.19-10.64-10.64Z"/>
    </g>
  </g>
</svg>